<svg width="200" height="200" viewBox="0 0 200 200" fill="none" xmlns="http://www.w3.org/2000/svg">
<circle cx="105" cy="103" r="75" fill="#F2F4F8"/>
<path d="M107.809 101.635L121.713 100L125.752 134.359C126.206 138.221 124.512 142.45 120.727 143.342C119.966 143.521 119.214 143.614 118.444 143.619C114.736 143.646 112.321 140.02 111.888 136.337L107.809 101.635Z" fill="#DDE3EE"/>
<path d="M94.9043 103.269L108.809 101.634L113.557 142.029C113.989 145.704 112.506 149.737 108.962 150.804C107.894 151.125 106.852 151.253 105.761 151.188C102.259 150.979 100.104 147.506 99.6946 144.021L94.9043 103.269Z" fill="#C7D1E3"/>
<path d="M93.9043 103.269L107.809 101.634L112.557 142.029C112.989 145.704 111.506 149.737 107.962 150.804C106.894 151.125 105.852 151.253 104.761 151.188C101.259 150.979 99.1043 147.506 98.6946 144.021L93.9043 103.269Z" fill="#DDE3EE"/>
<path d="M80.6819 102.196L94.5862 100.562L98.9477 137.666C99.3915 141.442 97.7973 145.583 94.1212 146.555C93.2184 146.793 92.3316 146.902 91.4153 146.882C87.7999 146.802 85.5068 143.243 85.0846 139.651L80.6819 102.196Z" fill="#C7D1E3"/>
<path d="M79.6819 102.196L93.5862 100.562L97.9477 137.666C98.3915 141.442 96.7973 145.583 93.1212 146.555C92.2184 146.793 91.3316 146.902 90.4153 146.882C86.7999 146.802 84.5068 143.243 84.0846 139.651L79.6819 102.196Z" fill="#DDE3EE"/>
<path d="M75.7346 91L87.676 96.9567L75.7547 123.798C74.0916 127.542 70.1897 130.381 66.2906 129.123C65.8778 128.989 65.4803 128.835 65.0931 128.657C61.5715 127.03 61.2752 122.384 62.8984 118.861L75.7346 91Z" fill="#C7D1E3"/>
<path d="M74.7346 90L87.6738 95.9614L74.7699 123.97C73.0831 127.631 69.2257 130.367 65.4356 128.994C64.8465 128.781 64.2879 128.527 63.7478 128.227C60.3739 126.348 60.0759 121.817 61.6918 118.31L74.7346 90Z" fill="#DDE3EE"/>
<path fill-rule="evenodd" clip-rule="evenodd" d="M147.383 164.885C143.902 161.542 141.684 157.554 139.531 153.325C137.089 148.53 135.156 139.385 134.496 135.412C113.91 121.441 73.0873 92.972 74.4812 90.8608C75.6915 89.0278 81.1127 87.3241 85.8662 85.8303C87.9562 85.1735 89.917 84.5573 91.3341 83.9885C95.9743 82.126 118.657 74.7453 128.187 77.8165C135.588 80.2015 143.701 88.0841 151.431 95.5955C153.655 97.7567 155.848 99.8871 157.983 101.847C161.819 105.368 169.659 112.847 177.887 120.751C173.466 138.969 162.392 154.586 147.383 164.885Z" fill="#DDE3EE"/>
<path fill-rule="evenodd" clip-rule="evenodd" d="M98.6661 118.88L101.88 115.666L76.1661 89.9524L72.9524 93.1662L98.6661 118.88Z" fill="#959EAC"/>
<path fill-rule="evenodd" clip-rule="evenodd" d="M53.5 96.375C67.7905 96.375 79.375 84.7904 79.375 70.5C79.375 56.2096 67.7905 44.625 53.5 44.625C39.2098 44.625 27.625 56.2096 27.625 70.5C27.625 84.7904 39.2098 96.375 53.5 96.375ZM53.5 36C72.5539 36 88 51.4461 88 70.5C88 89.5538 72.5539 105 53.5 105C34.4462 105 19 89.5538 19 70.5C19 51.4461 34.4462 36 53.5 36Z" fill="#52A1FD"/>
<path fill-rule="evenodd" clip-rule="evenodd" d="M111.121 131.334L114.334 128.121C115.222 127.233 115.222 125.794 114.334 124.907L91.7565 102.329C90.8691 101.441 89.4303 101.441 88.5428 102.329C88.5428 102.329 88.5428 102.329 88.5428 102.329L85.3291 105.543C84.4416 106.43 84.4416 107.869 85.3291 108.756L107.907 131.334C108.795 132.222 110.233 132.222 111.121 131.334C111.121 131.334 111.121 131.334 111.121 131.334Z" fill="#52A1FD"/>
<path d="M95.4129 108.925C97.0592 105.498 101.363 104.488 105.049 105.422L144.93 115.53C148.442 116.42 151.255 119.047 152.382 122.491C155.216 131.153 146.515 139.069 138.188 135.365C120.837 127.648 98.9771 117.67 96.9118 115.489C94.7104 113.165 94.2458 111.355 95.4129 108.925Z" fill="#C7D1E3"/>
<path d="M93.8734 109.32C95.5899 106.009 99.7911 105.065 103.405 105.984L146.415 116.925C149.846 117.798 152.616 120.324 153.801 123.66C156.892 132.364 148.184 140.558 139.714 136.873C121.273 128.851 97.6831 118.336 95.4578 116.095C93.0574 113.678 92.5743 111.826 93.8734 109.32Z" fill="#DDE3EE"/>
</svg>
